# xmcd
#
# Track frame offsets: 
#        150
#        13200
#        26869
#        38616
#        51479
#        60479
#        72723
#        86561
#        98636
#        108743
#        118006
#        129078
#        142428
#        152703
#        164591
#        173516
#        186763
#        198688
#        209320
#        220627
#        229234
#        241647
#        252804
#        264879
#        277358
#        287708
#        299849
#        310134
#        321384
#        331284
#
# Disc length: 4563 seconds
#
# Revision: 0
# Processed by: cddbd v1.5.2PL0 Copyright (c) Steve Scherf et al.
# Submitted via: ExactAudioCopy v1.1
#
DISCID=d511d11e
DTITLE=Carl Smith - Let's Live A Little Plus Smith's The Name
DYEAR=2017
DGENRE=Country
TTITLE0=Let's Live A Little
TTITLE1=Mr. Moon
TTITLE2=Night Train To Memphis
TTITLE3=Slowly
TTITLE4=Hang Your Head In Shame
TTITLE5=The Best Years Of Your Life
TTITLE6=If Teardrops Were Pennies
TTITLE7=More And More
TTITLE8=Sweet Little Miss Blue Eyes
TTITLE9=Honky-Tonk Man
TTITLE10=I Love You A Thousand Ways
TTITLE11=I Overlooked An Orchid
TTITLE12=San Antonio Rose
TTITLE13=Time Changes Everything
TTITLE14=Lovin' Is Livin'
TTITLE15=Oh, No!
TTITLE16=If I Could Hold Back The Dawn
TTITLE17=That's What You Think
TTITLE18=Live And Let Live
TTITLE19=If You Want It, I've Got It
TTITLE20=Please Come Back Home
TTITLE21=Look What Thoughts Done To Me
TTITLE22=The House That Love Built
TTITLE23=Come Back To Me
TTITLE24=Baby I'm Ready
TTITLE25=Cuss Across Shorty
TTITLE26=I Dreamed of The Old Rugged Cross
TTITLE27=Hey Joe!
TTITLE28=You Are The One
TTITLE29=Why, Why
EXTD=
EXTT0=
EXTT1=
EXTT2=
EXTT3=
EXTT4=
EXTT5=
EXTT6=
EXTT7=
EXTT8=
EXTT9=
EXTT10=
EXTT11=
EXTT12=
EXTT13=
EXTT14=
EXTT15=
EXTT16=
EXTT17=
EXTT18=
EXTT19=
EXTT20=
EXTT21=
EXTT22=
EXTT23=
EXTT24=
EXTT25=
EXTT26=
EXTT27=
EXTT28=
EXTT29=
PLAYORDER=
